<?xml version="1.0" encoding="UTF-8" standalone="no"?>
<!DOCTYPE svg PUBLIC "-//W3C//DTD SVG 1.1//EN"
 "http://www.w3.org/Graphics/SVG/1.1/DTD/svg11.dtd">
<!-- Generated by graphviz version 2.47.0 (20210316.0004)
 -->
<!-- Title: dependencies Pages: 1 -->
<svg width="586pt" height="284pt"
 viewBox="0.00 0.00 586.00 284.00" xmlns="http://www.w3.org/2000/svg" xmlns:xlink="http://www.w3.org/1999/xlink">
<g id="graph0" class="graph" transform="scale(1 1) rotate(0) translate(4 280)">
<title>dependencies</title>
<polygon fill="white" stroke="transparent" points="-4,4 -4,-280 582,-280 582,4 -4,4"/>
<text text-anchor="start" x="268.01" y="-42.4" font-family="Times-12" font-weight="bold" font-size="14.00">Legend</text>
<polygon fill="#ffffb3" stroke="transparent" points="55,-10 55,-30 75,-30 75,-10 55,-10"/>
<text text-anchor="start" x="78.63" y="-15.4" font-family="Times-12" font-size="14.00"> &#160;Declarations</text>
<polygon fill="#8dd3c7" stroke="transparent" points="168,-10 168,-30 188,-30 188,-10 168,-10"/>
<text text-anchor="start" x="191.73" y="-15.4" font-family="Times-12" font-size="14.00"> &#160;Module</text>
<polygon fill="#80b1d3" stroke="transparent" points="254,-10 254,-30 274,-30 274,-10 254,-10"/>
<text text-anchor="start" x="277.78" y="-15.4" font-family="Times-12" font-size="14.00"> &#160;Bootstrap</text>
<polygon fill="#fdb462" stroke="transparent" points="351,-10 351,-30 371,-30 371,-10 351,-10"/>
<text text-anchor="start" x="374.67" y="-15.4" font-family="Times-12" font-size="14.00"> &#160;Providers</text>
<polygon fill="#fb8072" stroke="transparent" points="447,-10 447,-30 467,-30 467,-10 447,-10"/>
<text text-anchor="start" x="470.73" y="-15.4" font-family="Times-12" font-size="14.00"> &#160;Exports</text>
<g id="clust1" class="cluster">
<title>cluster_LoadingModule</title>
<polygon fill="none" stroke="black" stroke-dasharray="1,5" points="8,-70 8,-268 570,-268 570,-70 8,-70"/>
</g>
<g id="clust7" class="cluster">
<title>cluster_LoadingModule_providers</title>
<polygon fill="none" stroke="black" points="212,-78 212,-130 562,-130 562,-78 212,-78"/>
</g>
<g id="clust2" class="cluster">
<title>cluster_LoadingModule_declarations</title>
<polygon fill="none" stroke="black" points="16,-78 16,-130 204,-130 204,-78 16,-78"/>
</g>
<g id="clust5" class="cluster">
<title>cluster_LoadingModule_exports</title>
<polygon fill="none" stroke="black" points="196,-208 196,-260 388,-260 388,-208 196,-208"/>
</g>
<!-- LoadingSpinnerComponent -->
<g id="node1" class="node">
<title>LoadingSpinnerComponent</title>
<polygon fill="#ffffb3" stroke="black" points="195.54,-122 24.46,-122 24.46,-86 195.54,-86 195.54,-122"/>
<text text-anchor="middle" x="110" y="-99.8" font-family="Times,serif" font-size="14.00">LoadingSpinnerComponent</text>
</g>
<!-- LoadingModule -->
<g id="node2" class="node">
<title>LoadingModule</title>
<polygon fill="#8dd3c7" stroke="black" points="345.21,-187 342.21,-191 321.21,-191 318.21,-187 238.79,-187 238.79,-151 345.21,-151 345.21,-187"/>
<text text-anchor="middle" x="292" y="-164.8" font-family="Times,serif" font-size="14.00">LoadingModule</text>
</g>
<!-- LoadingSpinnerComponent&#45;&gt;LoadingModule -->
<g id="edge1" class="edge">
<title>LoadingSpinnerComponent&#45;&gt;LoadingModule</title>
<path fill="none" stroke="black" d="M110,-122.11C110,-141.34 110,-169 110,-169 110,-169 228.87,-169 228.87,-169"/>
<polygon fill="black" stroke="black" points="228.87,-172.5 238.87,-169 228.87,-165.5 228.87,-172.5"/>
</g>
<!-- LoadingSpinnerComponent  -->
<g id="node3" class="node">
<title>LoadingSpinnerComponent </title>
<polygon fill="#fb8072" stroke="black" points="379.54,-252 204.46,-252 204.46,-216 379.54,-216 379.54,-252"/>
<text text-anchor="middle" x="292" y="-229.8" font-family="Times,serif" font-size="14.00">LoadingSpinnerComponent </text>
</g>
<!-- LoadingModule&#45;&gt;LoadingSpinnerComponent  -->
<g id="edge2" class="edge">
<title>LoadingModule&#45;&gt;LoadingSpinnerComponent </title>
<path fill="none" stroke="black" stroke-dasharray="5,2" d="M292,-187.11C292,-187.11 292,-205.99 292,-205.99"/>
<polygon fill="black" stroke="black" points="288.5,-205.99 292,-215.99 295.5,-205.99 288.5,-205.99"/>
</g>
<!-- LoadingInterceptor -->
<g id="node4" class="node">
<title>LoadingInterceptor</title>
<ellipse fill="#fdb462" stroke="black" cx="468" cy="-104" rx="85.66" ry="18"/>
<text text-anchor="middle" x="468" y="-99.8" font-family="Times,serif" font-size="14.00">LoadingInterceptor</text>
</g>
<!-- LoadingInterceptor&#45;&gt;LoadingModule -->
<g id="edge3" class="edge">
<title>LoadingInterceptor&#45;&gt;LoadingModule</title>
<path fill="none" stroke="black" d="M468,-122.11C468,-141.34 468,-169 468,-169 468,-169 355.28,-169 355.28,-169"/>
<polygon fill="black" stroke="black" points="355.28,-165.5 345.28,-169 355.28,-172.5 355.28,-165.5"/>
</g>
<!-- LoadingService -->
<g id="node5" class="node">
<title>LoadingService</title>
<ellipse fill="#fdb462" stroke="black" cx="292" cy="-104" rx="72.35" ry="18"/>
<text text-anchor="middle" x="292" y="-99.8" font-family="Times,serif" font-size="14.00">LoadingService</text>
</g>
<!-- LoadingService&#45;&gt;LoadingModule -->
<g id="edge4" class="edge">
<title>LoadingService&#45;&gt;LoadingModule</title>
<path fill="none" stroke="black" d="M292,-122.11C292,-122.11 292,-140.99 292,-140.99"/>
<polygon fill="black" stroke="black" points="288.5,-140.99 292,-150.99 295.5,-140.99 288.5,-140.99"/>
</g>
</g>
</svg>
