<?xml version="1.0" encoding="UTF-8" standalone="no"?>
<!DOCTYPE svg PUBLIC "-//W3C//DTD SVG 1.1//EN"
 "http://www.w3.org/Graphics/SVG/1.1/DTD/svg11.dtd">
<!-- Generated by graphviz version 2.47.0 (20210316.0004)
 -->
<!-- Title: dependencies Pages: 1 -->
<svg width="908pt" height="287pt"
 viewBox="0.00 0.00 908.00 287.00" xmlns="http://www.w3.org/2000/svg" xmlns:xlink="http://www.w3.org/1999/xlink">
<g id="graph0" class="graph" transform="scale(1 1) rotate(0) translate(4 283)">
<title>dependencies</title>
<polygon fill="white" stroke="transparent" points="-4,4 -4,-283 904,-283 904,4 -4,4"/>
<text text-anchor="start" x="429.01" y="-42.4" font-family="Times-12" font-weight="bold" font-size="14.00">Legend</text>
<polygon fill="#ffffb3" stroke="transparent" points="216,-10 216,-30 236,-30 236,-10 216,-10"/>
<text text-anchor="start" x="239.63" y="-15.4" font-family="Times-12" font-size="14.00"> &#160;Declarations</text>
<polygon fill="#8dd3c7" stroke="transparent" points="329,-10 329,-30 349,-30 349,-10 329,-10"/>
<text text-anchor="start" x="352.73" y="-15.4" font-family="Times-12" font-size="14.00"> &#160;Module</text>
<polygon fill="#80b1d3" stroke="transparent" points="415,-10 415,-30 435,-30 435,-10 415,-10"/>
<text text-anchor="start" x="438.78" y="-15.4" font-family="Times-12" font-size="14.00"> &#160;Bootstrap</text>
<polygon fill="#fdb462" stroke="transparent" points="512,-10 512,-30 532,-30 532,-10 512,-10"/>
<text text-anchor="start" x="535.67" y="-15.4" font-family="Times-12" font-size="14.00"> &#160;Providers</text>
<polygon fill="#fb8072" stroke="transparent" points="608,-10 608,-30 628,-30 628,-10 608,-10"/>
<text text-anchor="start" x="631.73" y="-15.4" font-family="Times-12" font-size="14.00"> &#160;Exports</text>
<g id="clust7" class="cluster">
<title>cluster_FrontendAngularUtilsModule</title>
<polygon fill="none" stroke="black" stroke-dasharray="1,5" points="8,-78 8,-203 322,-203 322,-78 8,-78"/>
</g>
<g id="clust10" class="cluster">
<title>cluster_FrontendAngularUtilsModule_exports</title>
<polygon fill="none" stroke="black" points="16,-143 16,-195 314,-195 314,-143 16,-143"/>
</g>
<g id="clust13" class="cluster">
<title>cluster_LoadingModule</title>
<polygon fill="none" stroke="black" stroke-dasharray="1,5" points="330,-70 330,-271 892,-271 892,-70 330,-70"/>
</g>
<g id="clust14" class="cluster">
<title>cluster_LoadingModule_declarations</title>
<polygon fill="none" stroke="black" points="696,-78 696,-130 884,-130 884,-78 696,-78"/>
</g>
<g id="clust17" class="cluster">
<title>cluster_LoadingModule_exports</title>
<polygon fill="none" stroke="black" points="498,-211 498,-263 690,-263 690,-211 498,-211"/>
</g>
<g id="clust19" class="cluster">
<title>cluster_LoadingModule_providers</title>
<polygon fill="none" stroke="black" points="338,-78 338,-130 688,-130 688,-78 338,-78"/>
</g>
<!-- DatadogCustomModule  -->
<g id="node1" class="node">
<title>DatadogCustomModule </title>
<polygon fill="#fb8072" stroke="black" points="306.04,-187 151.96,-187 151.96,-151 306.04,-151 306.04,-187"/>
<text text-anchor="middle" x="229" y="-164.8" font-family="Times,serif" font-size="14.00">DatadogCustomModule </text>
</g>
<!-- LoadingModule  -->
<g id="node2" class="node">
<title>LoadingModule </title>
<polygon fill="#fb8072" stroke="black" points="133.71,-187 24.29,-187 24.29,-151 133.71,-151 133.71,-187"/>
<text text-anchor="middle" x="79" y="-164.8" font-family="Times,serif" font-size="14.00">LoadingModule </text>
</g>
<!-- FrontendAngularUtilsModule -->
<g id="node3" class="node">
<title>FrontendAngularUtilsModule</title>
<polygon fill="#8dd3c7" stroke="black" points="256.69,-122 253.69,-126 232.69,-126 229.69,-122 73.31,-122 73.31,-86 256.69,-86 256.69,-122"/>
<text text-anchor="middle" x="165" y="-99.8" font-family="Times,serif" font-size="14.00">FrontendAngularUtilsModule</text>
</g>
<!-- FrontendAngularUtilsModule&#45;&gt;DatadogCustomModule  -->
<g id="edge1" class="edge">
<title>FrontendAngularUtilsModule&#45;&gt;DatadogCustomModule </title>
<path fill="none" stroke="black" stroke-dasharray="5,2" d="M204.29,-122.11C204.29,-122.11 204.29,-140.99 204.29,-140.99"/>
<polygon fill="black" stroke="black" points="200.79,-140.99 204.29,-150.99 207.79,-140.99 200.79,-140.99"/>
</g>
<!-- FrontendAngularUtilsModule&#45;&gt;LoadingModule  -->
<g id="edge2" class="edge">
<title>FrontendAngularUtilsModule&#45;&gt;LoadingModule </title>
<path fill="none" stroke="black" stroke-dasharray="5,2" d="M103.63,-122.11C103.63,-122.11 103.63,-140.99 103.63,-140.99"/>
<polygon fill="black" stroke="black" points="100.13,-140.99 103.63,-150.99 107.13,-140.99 100.13,-140.99"/>
</g>
<!-- LoadingSpinnerComponent -->
<g id="node4" class="node">
<title>LoadingSpinnerComponent</title>
<polygon fill="#ffffb3" stroke="black" points="875.54,-122 704.46,-122 704.46,-86 875.54,-86 875.54,-122"/>
<text text-anchor="middle" x="790" y="-99.8" font-family="Times,serif" font-size="14.00">LoadingSpinnerComponent</text>
</g>
<!-- LoadingModule -->
<g id="node5" class="node">
<title>LoadingModule</title>
<polygon fill="#8dd3c7" stroke="black" points="647.21,-187 644.21,-191 623.21,-191 620.21,-187 540.79,-187 540.79,-151 647.21,-151 647.21,-187"/>
<text text-anchor="middle" x="594" y="-164.8" font-family="Times,serif" font-size="14.00">LoadingModule</text>
</g>
<!-- LoadingSpinnerComponent&#45;&gt;LoadingModule -->
<g id="edge3" class="edge">
<title>LoadingSpinnerComponent&#45;&gt;LoadingModule</title>
<path fill="none" stroke="black" d="M790,-122.11C790,-141.34 790,-169 790,-169 790,-169 657.3,-169 657.3,-169"/>
<polygon fill="black" stroke="black" points="657.3,-165.5 647.3,-169 657.3,-172.5 657.3,-165.5"/>
</g>
<!-- LoadingSpinnerComponent  -->
<g id="node6" class="node">
<title>LoadingSpinnerComponent </title>
<polygon fill="#fb8072" stroke="black" points="681.54,-255 506.46,-255 506.46,-219 681.54,-219 681.54,-255"/>
<text text-anchor="middle" x="594" y="-232.8" font-family="Times,serif" font-size="14.00">LoadingSpinnerComponent </text>
</g>
<!-- LoadingModule&#45;&gt;LoadingSpinnerComponent  -->
<g id="edge4" class="edge">
<title>LoadingModule&#45;&gt;LoadingSpinnerComponent </title>
<path fill="none" stroke="black" stroke-dasharray="5,2" d="M594,-187.22C594,-187.22 594,-208.73 594,-208.73"/>
<polygon fill="black" stroke="black" points="590.5,-208.73 594,-218.73 597.5,-208.73 590.5,-208.73"/>
</g>
<!-- LoadingInterceptor -->
<g id="node7" class="node">
<title>LoadingInterceptor</title>
<ellipse fill="#fdb462" stroke="black" cx="594" cy="-104" rx="85.66" ry="18"/>
<text text-anchor="middle" x="594" y="-99.8" font-family="Times,serif" font-size="14.00">LoadingInterceptor</text>
</g>
<!-- LoadingInterceptor&#45;&gt;LoadingModule -->
<g id="edge5" class="edge">
<title>LoadingInterceptor&#45;&gt;LoadingModule</title>
<path fill="none" stroke="black" d="M594,-122.11C594,-122.11 594,-140.99 594,-140.99"/>
<polygon fill="black" stroke="black" points="590.5,-140.99 594,-150.99 597.5,-140.99 590.5,-140.99"/>
</g>
<!-- LoadingService -->
<g id="node8" class="node">
<title>LoadingService</title>
<ellipse fill="#fdb462" stroke="black" cx="418" cy="-104" rx="72.35" ry="18"/>
<text text-anchor="middle" x="418" y="-99.8" font-family="Times,serif" font-size="14.00">LoadingService</text>
</g>
<!-- LoadingService&#45;&gt;LoadingModule -->
<g id="edge6" class="edge">
<title>LoadingService&#45;&gt;LoadingModule</title>
<path fill="none" stroke="black" d="M418,-122.11C418,-141.34 418,-169 418,-169 418,-169 530.72,-169 530.72,-169"/>
<polygon fill="black" stroke="black" points="530.72,-172.5 540.72,-169 530.72,-165.5 530.72,-172.5"/>
</g>
</g>
</svg>
